<svg xmlns="http://www.w3.org/2000/svg" xmlns:xlink="http://www.w3.org/1999/xlink" width="512" zoomAndPan="magnify" viewBox="0 0 384 383.999986" height="512" preserveAspectRatio="xMidYMid meet" version="1.2"><defs/><g id="5d1ee66d4a"><rect x="0" width="384" y="0" height="383.999986" style="fill:#ffffff;fill-opacity:1;stroke:none;"/><rect x="0" width="384" y="0" height="383.999986" style="fill:#000000;fill-opacity:1;stroke:none;"/><g style="fill:#ffffff;fill-opacity:1;"><g transform="translate(14.581412, 260.507793)"><path style="stroke:none" d="M 79.390625 4.046875 C 69.222656 4.046875 59.835938 2.222656 51.234375 -1.421875 C 42.628906 -5.078125 35.175781 -10.164062 28.875 -16.6875 C 22.570312 -23.207031 17.679688 -30.765625 14.203125 -39.359375 C 10.734375 -47.960938 9 -57.175781 9 -67 C 9 -76.820312 10.734375 -86.007812 14.203125 -94.5625 C 17.679688 -103.125 22.570312 -110.664062 28.875 -117.1875 C 35.175781 -123.707031 42.628906 -128.8125 51.234375 -132.5 C 59.835938 -136.195312 69.265625 -138.046875 79.515625 -138.046875 C 89.859375 -138.046875 99.332031 -136.195312 107.9375 -132.5 C 116.539062 -128.8125 124.015625 -123.707031 130.359375 -117.1875 C 136.703125 -110.664062 141.609375 -103.125 145.078125 -94.5625 C 148.554688 -86.007812 150.296875 -76.820312 150.296875 -67 C 150.296875 -57.09375 148.554688 -47.859375 145.078125 -39.296875 C 141.609375 -30.742188 136.703125 -23.207031 130.359375 -16.6875 C 124.015625 -10.164062 116.519531 -5.078125 107.875 -1.421875 C 99.226562 2.222656 89.734375 4.046875 79.390625 4.046875 Z M 79.640625 -25.28125 C 87.203125 -25.28125 93.9375 -27.082031 99.84375 -30.6875 C 105.757812 -34.300781 110.429688 -39.234375 113.859375 -45.484375 C 117.296875 -51.742188 119.015625 -58.914062 119.015625 -67 C 119.015625 -75.082031 117.296875 -82.273438 113.859375 -88.578125 C 110.429688 -94.878906 105.757812 -99.832031 99.84375 -103.4375 C 93.9375 -107.039062 87.203125 -108.84375 79.640625 -108.84375 C 72.171875 -108.84375 65.457031 -107.039062 59.5 -103.4375 C 53.550781 -99.832031 48.859375 -94.878906 45.421875 -88.578125 C 41.992188 -82.273438 40.28125 -75.082031 40.28125 -67 C 40.28125 -58.914062 41.992188 -51.742188 45.421875 -45.484375 C 48.859375 -39.234375 53.550781 -34.300781 59.5 -30.6875 C 65.457031 -27.082031 72.171875 -25.28125 79.640625 -25.28125 Z M 79.640625 -25.28125 "/></g></g><g style="fill:#ffffff;fill-opacity:1;"><g transform="translate(200.563625, 260.507793)"><path style="stroke:none" d="M 79.90625 50.84375 C 68.4375 50.84375 58.613281 49.40625 50.4375 46.53125 C 42.269531 43.664062 35.578125 39.800781 30.359375 34.9375 C 25.148438 30.070312 21.265625 24.597656 18.703125 18.515625 C 16.140625 12.429688 14.726562 6.21875 14.46875 -0.125 L 44.1875 -0.125 C 45.144531 4.5625 46.882812 8.726562 49.40625 12.375 C 51.925781 16.03125 55.640625 18.921875 60.546875 21.046875 C 65.460938 23.179688 71.875 24.25 79.78125 24.25 C 87.082031 24.25 93.296875 23.203125 98.421875 21.109375 C 103.546875 19.023438 107.710938 16.160156 110.921875 12.515625 C 114.140625 8.867188 116.488281 4.675781 117.96875 -0.0625 C 119.445312 -4.800781 120.1875 -9.773438 120.1875 -14.984375 L 120.1875 -28.671875 C 115.664062 -19.898438 109.296875 -13.472656 101.078125 -9.390625 C 92.867188 -5.304688 83.769531 -3.265625 73.78125 -3.265625 C 64.3125 -3.265625 55.597656 -5 47.640625 -8.46875 C 39.691406 -11.945312 32.847656 -16.726562 27.109375 -22.8125 C 21.378906 -28.894531 16.925781 -35.953125 13.75 -43.984375 C 10.582031 -52.023438 9 -60.609375 9 -69.734375 C 9 -78.859375 10.5625 -87.503906 13.6875 -95.671875 C 16.8125 -103.847656 21.21875 -111.128906 26.90625 -117.515625 C 32.601562 -123.898438 39.34375 -128.914062 47.125 -132.5625 C 54.90625 -136.21875 63.441406 -138.046875 72.734375 -138.046875 C 80.734375 -138.046875 87.882812 -136.765625 94.1875 -134.203125 C 100.488281 -131.640625 105.832031 -128.316406 110.21875 -124.234375 C 114.601562 -120.148438 117.96875 -115.800781 120.3125 -111.1875 L 120.3125 -134 L 150.296875 -134 L 150.296875 -15.375 C 150.296875 -5.988281 148.773438 2.71875 145.734375 10.75 C 142.691406 18.789062 138.171875 25.804688 132.171875 31.796875 C 126.179688 37.796875 118.816406 42.46875 110.078125 45.8125 C 101.347656 49.164062 91.289062 50.84375 79.90625 50.84375 Z M 79.640625 -30.640625 C 85.117188 -30.640625 90.25 -31.660156 95.03125 -33.703125 C 99.8125 -35.742188 104.003906 -38.585938 107.609375 -42.234375 C 111.210938 -45.878906 114.015625 -50.070312 116.015625 -54.8125 C 118.015625 -59.550781 119.015625 -64.570312 119.015625 -69.875 C 119.015625 -75.082031 118.015625 -80.03125 116.015625 -84.71875 C 114.015625 -89.414062 111.234375 -93.566406 107.671875 -97.171875 C 104.109375 -100.785156 99.9375 -103.632812 95.15625 -105.71875 C 90.375 -107.800781 85.203125 -108.84375 79.640625 -108.84375 C 72.253906 -108.84375 65.582031 -107.191406 59.625 -103.890625 C 53.675781 -100.585938 48.960938 -96.023438 45.484375 -90.203125 C 42.015625 -84.378906 40.28125 -77.601562 40.28125 -69.875 C 40.28125 -62.3125 42.015625 -55.570312 45.484375 -49.65625 C 48.960938 -43.75 53.675781 -39.101562 59.625 -35.71875 C 65.582031 -32.332031 72.253906 -30.640625 79.640625 -30.640625 Z M 79.640625 -30.640625 "/></g></g></g></svg>